<svg width="45" height="45" viewBox="0 0 45 45" fill="none" xmlns="http://www.w3.org/2000/svg">
<path fill-rule="evenodd" clip-rule="evenodd" d="M0 22.5C0 10.0736 10.0736 0 22.5 0C34.9264 0 45 10.0736 45 22.5C45 34.9264 34.9264 45 22.5 45C10.0736 45 0 34.9264 0 22.5ZM22.4675 16.52C24.2957 16.52 25.5289 17.3108 26.2321 17.9716L28.9798 15.285C27.2922 13.7141 25.0962 12.75 22.4675 12.75C18.6597 12.75 15.3711 14.9383 13.7701 18.1233L13.7701 18.1233C13.1102 19.445 12.7316 20.9292 12.7316 22.5C12.7316 24.0708 13.1102 25.555 13.7701 26.8767L16.9144 24.4396L13.7809 26.8767C15.3819 30.0617 18.6597 32.25 22.4675 32.25C25.0962 32.25 27.303 31.3833 28.9149 29.8883L25.8426 27.505C25.0205 28.0792 23.9171 28.48 22.4675 28.48C19.8929 28.48 17.7077 26.7792 16.9289 24.4284L16.9289 24.4283C16.7234 23.8217 16.6044 23.1717 16.6044 22.5C16.6044 21.8283 16.7234 21.1783 16.9181 20.5717L16.9181 20.5716C17.7077 18.2208 19.8929 16.52 22.4675 16.52ZM16.9289 24.4284C16.9289 24.4283 16.9288 24.4283 16.9288 24.4283L16.9144 24.4396L16.9289 24.4284ZM31.6085 20.7233C31.7491 21.3299 31.814 21.9149 31.814 22.7166C31.814 25.6849 30.7539 28.1874 28.9149 29.8883L25.8427 27.5049C27.1408 26.5949 27.725 25.2408 27.8331 24.3416H22.4676V20.7233H31.6085Z" fill="black"/>
</svg>
